# xmcd CD database file
#
# Track frame offsets:
#	150
#	19852
#	34636
#	47960
#	61993
#	76971
#	95066
#	111457
#	131380
#	147886
#	161200
#	180618
#	208592
#	230170
#
# Disc length: 3335 seconds
#
# Revision: 0
# Processed by: cddbd v1.5.2PL0 Copyright (c) Steve Scherf et al.
# Submitted via: CDex 1.51
#
DISCID=c80d050e
DTITLE=Kugghia Bros Band - Je come nu rhythm'n blues
DYEAR=2000
DGENRE=Blues
TTITLE0=I' nen pozze dermì
TTITLE1=Jè come nu Rhithm 'n Blues
TTITLE2=Solvende
TTITLE3=Rosecachiuove
TTITLE4=Ah Ffì tu
TTITLE5=Neccò secca
TTITLE6=I' stenghe tise
TTITLE7=Spigne
TTITLE8=Felippe li loffe fai
TTITLE9=Spì e cunille
TTITLE10=I' so lu figghie de James Brown
TTITLE11=Se' ttappa
TTITLE12=Mme fa 'sci de testa (Llu cazze de pacche)
TTITLE13=Jè ita 'n gire è 'i fusò
EXTD=YEAR: 2000
EXTT0=
EXTT1=
EXTT2=
EXTT3=
EXTT4=
EXTT5=
EXTT6=
EXTT7=
EXTT8=
EXTT9=
EXTT10=
EXTT11=
EXTT12=
EXTT13=
PLAYORDER=
